<?xml version="1.0" encoding="UTF-8"?>
<svg width="57px" height="70px" viewBox="0 0 57 70" version="1.1" xmlns="http://www.w3.org/2000/svg" xmlns:xlink="http://www.w3.org/1999/xlink">
    <!-- Generator: Sketch 43.1 (39012) - http://www.bohemiancoding.com/sketch -->
    <title>ic_user</title>
    <desc>Created with Sketch.</desc>
    <defs></defs>
    <g id="Page-1" stroke="none" stroke-width="1" fill="none" fill-rule="evenodd">
        <g id="-" transform="translate(-893.000000, -345.000000)" stroke-width="4" stroke="#979797">
            <g id="ic_user" transform="translate(893.000000, 347.000000)">
                <g id="Group-17">
                    <g id="Group-8-Copy" transform="translate(14.250000, 0.000000)">
                        <ellipse id="Oval-3-Copy" cx="14.25" cy="14.3764793" rx="14.25" ry="14.3764793"></ellipse>
                    </g>
                    <path d="M2,30.4535927 C2,29.9000809 2.45438112,29.4460059 3.00428883,29.4460059 L53.9957112,29.4460059 C54.5493122,29.4460059 55,29.8973183 55,30.4535927 L55,55.805283 C55,56.7565471 54.2192328,58.1088452 53.4259373,58.547316 L53.3147993,58.6135246 C53.2430747,58.6594597 53.0845644,58.7570711 52.8439669,58.8989941 C52.4312567,59.1424424 51.9457009,59.4155905 51.3920285,59.7110849 C49.7988459,60.5613651 47.9886707,61.4137981 45.99983,62.2098832 C40.3343046,64.4776565 34.3974852,65.8355865 28.5,65.8355865 C22.602601,65.8355865 16.6640268,64.4767334 10.995573,62.2074024 C9.00566702,61.4107557 7.19435279,60.5577166 5.60003297,59.7068265 C5.04595658,59.4111154 4.56002472,59.1377647 4.14697568,58.8941328 C3.9061684,58.7520956 3.74750392,58.6543988 3.67568993,58.6084124 L3.5872798,58.554967 C2.77888903,58.0943606 2,56.7483279 2,55.805283 L2,30.4535927 Z" id="Rectangle-5" transform="translate(28.500000, 47.640796) scale(1, -1) translate(-28.500000, -47.640796) "></path>
                </g>
            </g>
        </g>
    </g>
</svg>